<?xml version="1.0" encoding="utf-8"?>
<!-- Generator: Adobe Illustrator 16.0.0, SVG Export Plug-In . SVG Version: 6.00 Build 0)  -->
<!DOCTYPE svg PUBLIC "-//W3C//DTD SVG 1.1//EN" "http://www.w3.org/Graphics/SVG/1.1/DTD/svg11.dtd">
<svg version="1.1" xmlns="http://www.w3.org/2000/svg" xmlns:xlink="http://www.w3.org/1999/xlink" x="0px" y="0px"
	 width="1190.55px" height="841.89px" viewBox="0 0 1190.55 841.89" enable-background="new 0 0 1190.55 841.89"
	 xml:space="preserve">
<g id="Layer_1">
	<g>
		<path fill="#00A14B" stroke="#000000" stroke-width="3" stroke-linejoin="round" stroke-miterlimit="10" d="M935.407,180.313
			c2.659,2.163,7.015,5.659,10.401,3.2c2.781-2.02,4.472-5.481,5.811-8.543c2.992-6.844,4.718-14.547,9.028-20.736
			c-0.811-6.154-2.025-12.323-3.675-18.478l-43.467,11.646c0.804,2.999,1.451,6.002,1.964,9.004
			C921.107,165.115,927.427,173.823,935.407,180.313z"/>
		<path fill="#00A14B" stroke="#000000" stroke-width="3" stroke-linejoin="round" stroke-miterlimit="10" d="M1082.186,603.056
			c-9.917-37.01-33.652-67.943-66.835-87.102c-9.146-5.28-18.709-9.485-28.537-12.608c31.888-34.957,45.894-84.944,32.766-133.94
			c-12.915-48.2-49.633-85.205-95.392-99.692c23.033-25.246,36.739-58.335,37.632-93.23c-1.834,4.807-4.031,9.438-7.716,13.001
			c-12.395,11.986-26.618-0.202-37.282-13.74c-1.252,42.333-29.969,80.719-72.926,92.229c-37.011,9.917-67.944,33.653-87.103,66.835
			s-24.248,71.839-14.331,108.849c16.779,62.617,73.726,106.351,138.483,106.351c12.508,0,25.024-1.655,37.203-4.918
			c0.003-0.001,0.006-0.002,0.01-0.003c25.396-6.802,51.922-3.309,74.692,9.838c22.772,13.147,39.063,34.377,45.868,59.776
			c14.049,52.434-17.178,106.521-69.61,120.571c-31.711,8.497-64.025,0.429-87.725-18.873c-4.427,7.493-10.401,13.98-18.761,15.428
			c-7.472,1.293-14.722-0.962-20.911-5.229c-4.105-2.83-8.151-5.944-10.599-10.401c-2.074-3.777-3.313-7.841-4.748-11.881
			c-1.303-3.669-2.917-7.236-7.126-8.034c-2.525-0.479-4.923,0.128-7.101,1.268c22.884,52.544,75.131,86.098,131.522,86.095
			c12.253-0.001,24.708-1.586,37.094-4.904C1057.155,758.269,1102.656,679.457,1082.186,603.056z M785.929,432.012
			c-6.806-25.4-3.313-51.929,9.835-74.703c13.148-22.773,34.378-39.063,59.778-45.869c8.381-2.246,16.979-3.384,25.555-3.384
			c44.428,0,83.499,30.017,95.016,72.996c14.048,52.431-17.175,106.516-69.602,120.569c-0.004,0.001-0.007,0.002-0.011,0.003l0,0
			c-8.382,2.246-16.979,3.385-25.555,3.385C836.518,505.009,797.445,474.991,785.929,432.012z"/>
		<path fill="#00A14B" stroke="#000000" stroke-width="3" stroke-linejoin="round" stroke-miterlimit="10" d="M831.434,692.584
			c5.101,6.425,4.755,16.32,10.891,21.922c4.265,3.894,11.396,9.037,17.641,7.68c6.223-1.354,10.683-6.441,14.021-12.452
			c-11.838-11.813-20.819-26.789-25.45-44.071l-43.467,11.646c0.997,3.721,2.138,7.365,3.405,10.936
			C816.27,684.846,825.807,685.498,831.434,692.584z"/>
	</g>
	<g>
		<path fill="#FFF200" stroke="#000000" stroke-width="3" stroke-linejoin="round" stroke-miterlimit="10" d="M794.007,461.621
			c-15.083-21.54-20.875-47.665-16.309-73.562l49.004-277.912c-3.096-8.137-8.203-18.741-17.871-14.942
			c-13.249,5.205-18.696,20.69-28.46,29.998c-0.762,0.727-1.562,1.439-2.393,2.12l-26.497,150.273
			c-21.1-28.39-52.639-49.101-90.14-55.714c-8.277-1.459-16.705-2.199-25.051-2.199c-69.661,0-129.013,49.861-141.126,118.558
			c-13.735,77.894,38.463,152.439,116.358,166.175c8.277,1.459,16.705,2.199,25.051,2.199c41.429,0,79.21-17.637,105.578-46.382
			c3.959,9.472,8.963,18.588,14.992,27.199c21.978,31.387,54.862,52.336,92.596,58.989l7.814-44.316
			C831.658,497.539,809.09,483.162,794.007,461.621z M636.574,461.615c-5.732,0-11.532-0.51-17.236-1.516
			c-53.459-9.427-89.283-60.586-79.856-114.044c8.313-47.15,49.028-81.372,96.81-81.372c5.733,0,11.533,0.51,17.236,1.516
			c53.458,9.426,89.28,60.587,79.854,114.046C725.068,427.395,684.354,461.615,636.574,461.615z"/>
		<path fill="#FFF200" stroke="#000000" stroke-width="3" stroke-linejoin="round" stroke-miterlimit="10" d="M814.82,84.385
			c6.47,0.677,11.169,4.562,14.731,9.599l4.126-23.398l-44.316-7.814l-8.096,45.91c0.544-0.747,1.083-1.489,1.618-2.216
			C790.3,96.386,800.544,82.891,814.82,84.385z"/>
	</g>
	<path fill="#ED1C24" stroke="#000000" stroke-width="3" stroke-linejoin="round" stroke-miterlimit="10" d="M341.365,339.347
		c-36.673-40.022-33.949-102.418,6.073-139.092c29.408-26.947,70.898-32.622,105.386-17.857c0.411-8.997,3.059-18.047,13.128-19.166
		c10.895-1.21,21.099,6.032,31.999,5.366c4.117-0.251,8.07-1.126,11.859-2.47c-54.218-48.779-137.917-49.316-192.773,0.95
		c-58.316,53.438-62.286,144.355-8.849,202.671c28.251,30.831,66.971,46.469,105.818,46.469c34.632,0,69.367-12.435,96.852-37.62
		l-30.401-33.178C440.434,382.092,378.037,379.368,341.365,339.347z"/>
	<path fill="#ED1C24" stroke="#000000" stroke-width="3" stroke-linejoin="round" stroke-miterlimit="10" d="M508.018,177.126
		c-7.175,1.686-14.037,1.837-21.224,0.231c-5.203-1.163-10.296-2.886-15.538-3.864c-3.153-0.588-5.787-0.87-6.901,1.261
		c-1.866,3.569-1.963,8.177-1.705,12.526c8.692,4.939,16.77,11.29,23.879,19.047l33.178-30.401c-0.66-0.721-1.331-1.426-2.002-2.13
		C514.584,175.195,511.36,176.341,508.018,177.126z"/>
	<path fill="#ED1C24" stroke="#000000" stroke-width="3" stroke-linejoin="round" stroke-miterlimit="10" d="M412.148,462.301
		c-11.611-5.31-22.367-12.975-31.521-22.965l-33.178,30.402c5.722,6.244,11.879,11.854,18.374,16.848
		C378.01,473.136,394.528,466.098,412.148,462.301z"/>
	<path fill="#ED1C24" stroke="#000000" stroke-width="3" stroke-linejoin="round" stroke-miterlimit="10" d="M558.97,275.917
		c-53.438-58.316-144.357-62.285-202.671-8.848l30.402,33.177c40.021-36.673,102.417-33.949,139.091,6.073
		c17.765,19.387,26.917,44.532,25.77,70.803c-1.147,26.271-12.456,50.523-31.843,68.288c-24.26,22.23-56.742,29.98-86.731,23.726
		c-21.729,2.111-44.169,7.364-59.029,23.273c23.857,15.809,51.55,23.8,79.31,23.799c34.632-0.002,69.366-12.435,96.852-37.62
		C608.438,425.149,612.406,334.232,558.97,275.917z"/>
	<path fill="#1C75BC" stroke="#000000" stroke-width="3" stroke-linejoin="round" stroke-miterlimit="10" d="M246.845,506.628
		c-79.096,0-143.446-64.35-143.446-143.446c0-79.096,64.35-143.446,143.446-143.446c79.097,0,143.446,64.35,143.446,143.446
		C390.292,442.278,325.942,506.628,246.845,506.628z M246.845,264.736c-54.283,0-98.446,44.163-98.446,98.446
		c0,54.284,44.163,98.446,98.446,98.446c54.284,0,98.446-44.163,98.446-98.446C345.292,308.898,301.129,264.736,246.845,264.736z"/>
	<g>
		<path fill="#ED1C24" d="M347.438,200.254c-40.022,36.674-42.746,99.07-6.073,139.092l-33.178,30.401
			c-53.437-58.316-49.467-149.234,8.849-202.671"/>
		<path d="M308.188,371.248c-0.406,0-0.811-0.164-1.106-0.487c-53.995-58.925-49.984-150.794,8.942-204.791l2.026,2.212
			c-57.336,52.54-61.58,141.697-9.764,199.441l30.968-28.377c-36.173-40.667-33.091-103.204,7.171-140.098l2.026,2.212
			c-39.412,36.115-42.095,97.561-5.98,136.973c0.269,0.293,0.41,0.681,0.393,1.079c-0.017,0.397-0.192,0.772-0.485,1.041
			L309.2,370.854C308.913,371.118,308.549,371.248,308.188,371.248z"/>
	</g>
	<path fill="#FFF200" stroke="#000000" stroke-width="3" stroke-miterlimit="10" d="M495.165,338.241
		c-13.735,77.894,38.463,152.439,116.358,166.175l7.814-44.316c-53.459-9.427-89.283-60.586-79.856-114.044"/>
</g>
<g id="Layer_2" display="none">
	<text transform="matrix(1 0 0 1 146 630)" display="inline"><tspan x="0" y="0" fill="#1C75BC" stroke="#000000" stroke-width="2" stroke-linejoin="round" stroke-miterlimit="10" font-family="'MyriadPro-Regular'" font-size="60">Open</tspan><tspan x="138.838" y="0" stroke="#000000" stroke-width="2" stroke-linejoin="round" font-family="'MyriadPro-Regular'" font-size="60"> </tspan><tspan x="151.557" y="0" fill="#ED1C24" stroke="#000000" stroke-width="2" stroke-linejoin="round" stroke-miterlimit="10" font-family="'MyriadPro-Regular'" font-size="60">Source</tspan><tspan x="323.696" y="0" stroke="#000000" stroke-width="2" stroke-linejoin="round" font-family="'MyriadPro-Regular'" font-size="60"> </tspan><tspan x="336.415" y="0" fill="#FFF200" stroke="#000000" stroke-width="2" stroke-linejoin="round" stroke-miterlimit="10" font-family="'MyriadPro-Regular'" font-size="60">Developers</tspan><tspan x="620.03" y="0" stroke="#000000" stroke-width="2" stroke-linejoin="round" font-family="'MyriadPro-Regular'" font-size="60"> </tspan><tspan x="632.749" y="0" fill="#00A14B" stroke="#000000" stroke-width="2" stroke-linejoin="round" stroke-miterlimit="10" font-family="'MyriadPro-Regular'" font-size="60">Group</tspan></text>
</g>
</svg>
